<svg xmlns="http://www.w3.org/2000/svg" viewBox="0 0 128 128">
  <path fill="#00DC82" d="M93.865 27.127L77.27 53.926a22.19 22.19 0 0 0-21.454-16.438c-12.268 0-22.254 9.986-22.254 22.254c0 12.268 9.986 22.254 22.254 22.254c9.071 0 16.867-5.44 20.346-13.236l16.663-26.857c6.89-11.116 21.438-14.55 32.554-7.66c11.116 6.89 14.55 21.438 7.66 32.554l-28.916 46.648c-13.78 22.232-43.093 29.084-65.324 15.304c-22.232-13.78-29.084-43.093-15.304-65.324l16.595-26.799l5.327 3.3l-16.595 26.799c-11.89 19.189-5.96 44.338 13.229 56.229c19.189 11.89 44.338 5.96 56.229-13.229l28.916-46.648c4.647-7.496 2.333-17.336-5.163-21.983c-7.496-4.647-17.336-2.333-21.983 5.163L77.27 82.656l-5.327-3.3l16.595-26.799c2.325-3.749 1.166-8.668-2.582-10.992c-3.749-2.325-8.668-1.166-10.992 2.582l-16.595 26.799c-2.325 3.749-7.243 4.907-10.992 2.582c-3.749-2.325-4.907-7.243-2.582-10.992l16.595-26.799c6.89-11.116 21.438-14.55 32.554-7.66c.309.191.611.39.906.597c-.326-.182-.647-.37-.962-.564c-3.749-2.325-4.907-7.243-2.582-10.992l2.582-4.164l5.327 3.3l-2.582 4.164c-2.325 3.749-1.166 8.668 2.582 10.992z"/>
</svg> 